<?xml version="1.0" encoding="UTF-8" standalone="no"?>
<!-- Created with Inkscape (http://www.inkscape.org/) -->

<svg
   version="1.1"
   id="svg2"
   xml:space="preserve"
   width="365.33334"
   height="168.39999"
   viewBox="0 0 365.33334 168.39999"
   sodipodi:docname="xd.eps"
   xmlns:inkscape="http://www.inkscape.org/namespaces/inkscape"
   xmlns:sodipodi="http://sodipodi.sourceforge.net/DTD/sodipodi-0.dtd"
   xmlns="http://www.w3.org/2000/svg"
   xmlns:svg="http://www.w3.org/2000/svg"><defs
     id="defs6" /><sodipodi:namedview
     id="namedview4"
     pagecolor="#ffffff"
     bordercolor="#666666"
     borderopacity="1.0"
     inkscape:pageshadow="2"
     inkscape:pageopacity="0.0"
     inkscape:pagecheckerboard="0" /><g
     id="g8"
     inkscape:groupmode="layer"
     inkscape:label="ink_ext_XXXXXX"
     transform="matrix(1.3333333,0,0,-1.3333333,0,168.4)"><g
       id="g10"
       transform="scale(0.1)"><path
         d="m 430,389 81,175 78,-175 h 88.996 L 561,637.004 679,873 H 592.004 L 507.996,709 440,872.004 347.996,873 456,624 340,389 Z m 339,221 c 28.004,16 57,15 86,11 2.004,0 6,-5 6,-8 0,-53 0,-107 0,-160.996 -27,-5 -53.004,-7.004 -78.004,0 C 751,461 732.996,485 729,521 c -3,39 12,73 40,89 z M 757.004,391 C 812.996,375 869,383 925,390 c 12.004,1 14,8 14,20 0,151 0,302.004 0,454 v 8.004 H 864 V 694 c -41.996,4 -80,3.004 -116.996,-13 -60,-25 -90,-81 -87.004,-161 2.004,-65 37.004,-112 97.004,-129 z M 1125,123 c -326,0 -652.996,0 -979,0 -16,0 -16,0 -16,16 v 979 c 0,16 0,12 16,12 h 978 c 16,0 16,4 16,-13 V 629 c 0,-163 0,-326 0,-490 0,-12 -3,-16 -15,-16 z m 127,1140 c -362,0 -723,0 -1084.996,0 -52.004,0 -105.0001,0 -156.004,0 -4,0 -11,-2 -11,-3 L 0,0 h 1260 v 1260 c 0,1 -4,3 -8,3"
         style="fill:#dc64b9;fill-opacity:1;fill-rule:nonzero;stroke:none"
         id="path12" /><path
         d="m 2298,408.027 c 32.86,-9 65.72,-6 100.36,0 0,68.004 0,134 0,200 0,3.004 -4.44,9 -7.11,10 -37.3,6 -75.49,6 -110.13,-13 -36.41,-20 -55.06,-62 -50.62,-111 2.66,-45 26.64,-74 67.5,-86 z m 194.71,514.215 c 0,-189.41 0,-377.57 0,-565.734 0,-14.949 -2.5,-23.672 -17.45,-24.922 -69.78,-8.719 -139.56,-18.691 -209.34,1.25 -74.77,21.184 -118.38,79.754 -120.88,160.75 -3.73,99.684 33.65,169.465 108.42,200.617 46.1,19.938 93.45,21.188 145.79,16.203 v 221.805 h 93.46 z m -436.14,-591.898 -97.19,218.07 -100.94,-218.07 h -112.15 l 144.55,292.836 -134.58,310.277 114.64,-1.246 84.73,-203.113 104.68,204.359 h 108.41 L 2021.68,639.375 2167.48,330.344 Z M 2740,1237 c 0,21 0,23 -20,23 H 1505 c -20,0 -25,-2 -25,-22 V 23 c 0,-20 3,-20 22,-20 406,0 812,0 1218,0 16,0 20,4 20,20 -1,202 0,405 0,607 v 607"
         style="fill:#dc64b9;fill-opacity:1;fill-rule:nonzero;stroke:none"
         id="path14" /></g></g></svg>
